<svg width="590" height="286" viewBox="0 0 590 286" fill="none" xmlns="http://www.w3.org/2000/svg">
<path d="M202.144 155.4H236.192C241.568 157.192 246.133 160.52 249.888 165.384C253.728 170.163 255.648 176.051 255.648 183.048C255.648 194.483 251.125 202.888 242.08 208.264L255.008 245H237.088L226.208 212.36H219.424V245H202.144V155.4ZM219.424 170.76V198.024H230.432C231.883 197.683 233.461 196.232 235.168 193.672C236.96 191.027 237.856 187.955 237.856 184.456C237.856 180.957 237.088 177.885 235.552 175.24C234.101 172.595 232.651 171.101 231.2 170.76H219.424ZM306.14 245H279.004C272.86 239.368 268.38 232.669 265.564 224.904C262.748 217.139 261.34 209.032 261.34 200.584C261.34 192.051 263.047 183.645 266.46 175.368C269.873 167.091 274.652 160.435 280.796 155.4H311.9V170.76H288.092C285.873 173.32 283.953 177.373 282.332 182.92C280.711 188.381 279.9 194.227 279.9 200.456C279.9 206.6 280.625 212.488 282.076 218.12C283.612 223.667 285.489 227.677 287.708 230.152H299.996V195.336H316.892V216.84C316.892 228.616 313.308 238.003 306.14 245ZM365.038 245L362.35 230.792H342.126L339.438 245H322.03L339.31 155.4H365.806L382.19 245H365.038ZM351.982 172.04L346.99 201.864L344.174 217.096H360.174L357.23 201.864L352.238 172.04H351.982ZM429.58 245L405.644 195.464L405.004 195.72L405.772 210.824V245H389.644V155.4H402.572L426.124 206.856L426.764 206.6L425.356 190.856V155.4H441.484V245H429.58ZM453.769 245V155.4H471.305V245H453.769ZM529.468 170.376L499.132 230.152H529.596V245H480.572V230.408L510.78 170.76H480.572V155.4H529.468V170.376ZM538.894 245V155.4H584.846V170.76H556.43V192.136H581.774V206.984H556.43V230.152H585.358V245H538.894Z" fill="#531983"/>
<path d="M494.784 97.04H494.272H494.784L501.568 69.008L507.072 48.4H523.072L528.832 138H512.064L509.632 89.104H508.992L499.776 125.2H489.28L480.064 89.104H479.424L476.992 138H460.224L465.984 48.4H481.984L487.488 69.008L494.272 97.04H494.784ZM539.144 138V48.4H585.096V63.76H556.68V85.136H582.024V99.984H556.68V123.152H585.608V138H539.144Z" fill="#E839B6"/>
<rect y="90" width="32.087" height="164" fill="#531983"/>
<path d="M0 254L0 221.913H164V254H0Z" fill="#531983"/>
<rect x="196" y="222" width="32.087" height="164" transform="rotate(180 196 222)" fill="#E839B6"/>
<path d="M196 58V90.087H32V58L196 58Z" fill="#E839B6"/>
</svg>
